<svg width="847" height="520" xmlns="http://www.w3.org/2000/svg" version="1.1"><g transform="translate(0, 10)"><g class="links" fill="none" stroke-opacity="0.7"><path d="M5,258.67456896551727C423.5,258.67456896551727,423.5,292.29525862068965,842,292.29525862068965" stroke-width="9.245689655172415" style="stroke: rgb(191, 105, 105);"></path><path d="M5,21.33620689655184C423.5,21.33620689655184,423.5,156.33620689655172,842,156.33620689655172" stroke-width="42.67241379310345" style="stroke: rgb(105, 191, 111);"></path><path d="M5,195.72198275862075C423.5,195.72198275862075,423.5,270.7219827586207,842,270.7219827586207" stroke-width="12.09051724137931" style="stroke: rgb(191, 141, 105);"></path><path d="M5,435.2586206896552C423.5,435.2586206896552,423.5,319.91379310344837,842,319.91379310344837" stroke-width="1.4224137931034484" style="stroke: rgb(191, 158, 105);"></path><path d="M5,457.62931034482756C423.5,457.62931034482756,423.5,363.5775862068965,842,363.5775862068965" stroke-width="0.9482758620689655" style="stroke: rgb(191, 176, 105);"></path><path d="M5,95.86206896551735C423.5,95.86206896551735,423.5,210.86206896551727,842,210.86206896551727" stroke-width="20.862068965517242" style="stroke: rgb(188, 191, 105);"></path><path d="M5,149.88146551724145C423.5,149.88146551724145,423.5,244.8814655172414,842,244.8814655172414" stroke-width="14.461206896551724" style="stroke: rgb(170, 191, 105);"></path><path d="M5,308.1142241379311C423.5,308.1142241379311,423.5,353.50215517241384,842,353.50215517241384" stroke-width="4.030172413793103" style="stroke: rgb(152, 191, 105);"></path><path d="M5,349.25646551724145C423.5,349.25646551724145,423.5,357.29525862068965,842,357.29525862068965" stroke-width="3.5560344827586206" style="stroke: rgb(135, 191, 105);"></path><path d="M5,423.5991379310345C423.5,423.5991379310345,423.5,362.1551724137931,842,362.1551724137931" stroke-width="1.896551724137931" style="stroke: rgb(117, 191, 105);"></path><path d="M5,64.05172413793117C423.5,64.05172413793117,423.5,189.05172413793105,842,189.05172413793105" stroke-width="22.758620689655174" style="stroke: rgb(191, 105, 105);"></path><path d="M5,335.70043103448285C423.5,335.70043103448285,423.5,307.9418103448276,842,307.9418103448276" stroke-width="3.5560344827586206" style="stroke: rgb(105, 191, 129);"></path><path d="M5,217.45689655172413C423.5,217.45689655172413,423.5,338.448275862069,842,338.448275862069" stroke-width="11.379310344827587" style="stroke: rgb(105, 191, 146);"></path><path d="M5,124.4719827586208C423.5,124.4719827586208,423.5,229.4719827586207,842,229.4719827586207" stroke-width="16.357758620689655" style="stroke: rgb(105, 191, 164);"></path><path d="M5,173.39439655172416C423.5,173.39439655172416,423.5,258.3943965517241,842,258.3943965517241" stroke-width="12.564655172413794" style="stroke: rgb(105, 191, 182);"></path><path d="M5,411.70258620689646C423.5,411.70258620689646,423.5,318.2543103448277,842,318.2543103448277" stroke-width="1.896551724137931" style="stroke: rgb(105, 182, 191);"></path><path d="M5,499.88146551724134C423.5,499.88146551724134,423.5,322.6400862068966,842,322.6400862068966" stroke-width="0.23706896551724138" style="stroke: rgb(105, 164, 191);"></path><path d="M5,293.3728448275863C423.5,293.3728448275863,423.5,299.6443965517241,842,299.6443965517241" stroke-width="5.452586206896552" style="stroke: rgb(105, 146, 191);"></path><path d="M5,238.59913793103445C423.5,238.59913793103445,423.5,282.2198275862069,842,282.2198275862069" stroke-width="10.905172413793103" style="stroke: rgb(105, 129, 191);"></path><path d="M5,468.4590517241379C423.5,468.4590517241379,423.5,322.16594827586215,842,322.16594827586215" stroke-width="0.7112068965517242" style="stroke: rgb(105, 111, 191);"></path><path d="M5,276.97198275862075C423.5,276.97198275862075,423.5,347.81250000000006,842,347.81250000000006" stroke-width="7.349137931034483" style="stroke: rgb(117, 105, 191);"></path><path d="M5,375.06465517241384C423.5,375.06465517241384,423.5,313.75000000000006,842,313.75000000000006" stroke-width="2.3706896551724137" style="stroke: rgb(135, 105, 191);"></path><path d="M5,322.0258620689656C423.5,322.0258620689656,423.5,304.26724137931035,842,304.26724137931035" stroke-width="3.793103448275862" style="stroke: rgb(152, 105, 191);"></path><path d="M5,399.68749999999983C423.5,399.68749999999983,423.5,360.1400862068965,842,360.1400862068965" stroke-width="2.1336206896551726" style="stroke: rgb(170, 105, 191);"></path><path d="M5,489.5258620689656C423.5,489.5258620689656,423.5,364.76293103448273,842,364.76293103448273" stroke-width="0.47413793103448276" style="stroke: rgb(188, 105, 191);"></path><path d="M5,479.05172413793105C423.5,479.05172413793105,423.5,364.28879310344826,842,364.28879310344826" stroke-width="0.47413793103448276" style="stroke: rgb(191, 105, 176);"></path><path d="M5,362.4568965517242C423.5,362.4568965517242,423.5,311.14224137931035,842,311.14224137931035" stroke-width="2.844827586206897" style="stroke: rgb(191, 105, 158);"></path><path d="M5,387.43534482758616C423.5,387.43534482758616,423.5,316.1206896551725,842,316.1206896551725" stroke-width="2.3706896551724137" style="stroke: rgb(191, 105, 141);"></path><path d="M5,446.5625C423.5,446.5625,423.5,321.21767241379314,842,321.21767241379314" stroke-width="1.1853448275862069" style="stroke: rgb(191, 105, 123);"></path></g><g class="nodes" font-family="Arial, Helvetica" font-size="10"><g><rect x="842" y="135" height="187.7586206896552" width="5" fill="#000"></rect><text x="836" y="228.87931034482762" dy="0.35em" text-anchor="end">Inter-chromosomal</text></g><g><rect x="842" y="332.75862068965523" height="32.241379310344826" width="5" fill="#000"></rect><text x="836" y="348.8793103448277" dy="0.35em" text-anchor="end">Intra-chromosomal</text></g><g><rect x="0" y="468.10344827586204" height="0.7112068965517437" width="5" fill="#000"></rect><text x="11" y="468.4590517241379" dy="0.35em" text-anchor="start">ACTA2</text></g><g><rect x="0" y="290.646551724138" height="5.4525862068965125" width="5" fill="#000"></rect><text x="11" y="293.3728448275863" dy="0.35em" text-anchor="start">C1QC</text></g><g><rect x="0" y="116.29310344827597" height="16.357758620689594" width="5" fill="#000"></rect><text x="11" y="124.47198275862077" dy="0.35em" text-anchor="start">CCL5</text></g><g><rect x="0" y="142.65086206896558" height="14.461206896551687" width="5" fill="#000"></rect><text x="11" y="149.88146551724142" dy="0.35em" text-anchor="start">COL5A2</text></g><g><rect x="0" y="410.7543103448275" height="1.8965517241380212" width="5" fill="#000"></rect><text x="11" y="411.7025862068965" dy="0.35em" text-anchor="start">CPA3</text></g><g><rect x="0" y="361.03448275862075" height="2.8448275862068613" width="5" fill="#000"></rect><text x="11" y="362.4568965517242" dy="0.35em" text-anchor="start">CX3CR1</text></g><g><rect x="0" y="445.9698275862069" height="1.1853448275861638" width="5" fill="#000"></rect><text x="11" y="446.5625" dy="0.35em" text-anchor="start">DPP4</text></g><g><rect x="0" y="333.92241379310354" height="3.556034482758605" width="5" fill="#000"></rect><text x="11" y="335.70043103448285" dy="0.35em" text-anchor="start">ESAM</text></g><g><rect x="0" y="189.6767241379311" height="12.090517241379246" width="5" fill="#000"></rect><text x="11" y="195.72198275862073" dy="0.35em" text-anchor="start">HIST1H2AC</text></g><g><rect x="0" y="233.1465517241379" height="10.905172413793139" width="5" fill="#000"></rect><text x="11" y="238.59913793103448" dy="0.35em" text-anchor="start">HLA-DRB1</text></g><g><rect x="0" y="306.09913793103453" height="4.030172413793139" width="5" fill="#000"></rect><text x="11" y="308.1142241379311" dy="0.35em" text-anchor="start">HOXA5</text></g><g><rect x="0" y="347.47844827586215" height="3.556034482758605" width="5" fill="#000"></rect><text x="11" y="349.25646551724145" dy="0.35em" text-anchor="start">HOXB3</text></g><g><rect x="0" y="422.6508620689655" height="1.8965517241379075" width="5" fill="#000"></rect><text x="11" y="423.5991379310345" dy="0.35em" text-anchor="start">HOXC6</text></g><g><rect x="0" y="499.76293103448273" height="0.23706896551721002" width="5" fill="#000"></rect><text x="11" y="499.88146551724134" dy="0.35em" text-anchor="start">IGLL5</text></g><g><rect x="0" y="320.1293103448277" height="3.793103448275872" width="5" fill="#000"></rect><text x="11" y="322.0258620689656" dy="0.35em" text-anchor="start">KRT5</text></g><g><rect x="0" y="167.11206896551727" height="12.564655172413836" width="5" fill="#000"></rect><text x="11" y="173.39439655172418" dy="0.35em" text-anchor="start">MX1</text></g><g><rect x="0" y="373.8793103448276" height="2.3706896551723275" width="5" fill="#000"></rect><text x="11" y="375.0646551724138" dy="0.35em" text-anchor="start">NAA30</text></g><g><rect x="0" y="52.67241379310359" height="22.758620689655146" width="5" fill="#000"></rect><text x="11" y="64.05172413793116" dy="0.35em" text-anchor="start">NR4A1</text></g><g><rect x="0" y="1.1368683772161603e-13" height="42.67241379310347" width="5" fill="#000"></rect><text x="11" y="21.33620689655185" dy="0.35em" text-anchor="start">NUSAP1</text></g><g><rect x="0" y="478.8146551724138" height="0.4741379310345337" width="5" fill="#000"></rect><text x="11" y="479.05172413793105" dy="0.35em" text-anchor="start">PCDHAC1</text></g><g><rect x="0" y="398.62068965517227" height="2.133620689655231" width="5" fill="#000"></rect><text x="11" y="399.6874999999999" dy="0.35em" text-anchor="start">PCDHB10</text></g><g><rect x="0" y="489.2887931034483" height="0.47413793103442003" width="5" fill="#000"></rect><text x="11" y="489.5258620689655" dy="0.35em" text-anchor="start">PCDHGA6</text></g><g><rect x="0" y="386.24999999999994" height="2.3706896551723275" width="5" fill="#000"></rect><text x="11" y="387.4353448275861" dy="0.35em" text-anchor="start">PER3</text></g><g><rect x="0" y="254.05172413793105" height="9.245689655172441" width="5" fill="#000"></rect><text x="11" y="258.67456896551727" dy="0.35em" text-anchor="start">RPL35</text></g><g><rect x="0" y="273.2974137931035" height="7.349137931034534" width="5" fill="#000"></rect><text x="11" y="276.97198275862075" dy="0.35em" text-anchor="start">SLC4A1AP</text></g><g><rect x="0" y="211.76724137931035" height="11.379310344827559" width="5" fill="#000"></rect><text x="11" y="217.45689655172413" dy="0.35em" text-anchor="start">TAP1</text></g><g><rect x="0" y="85.43103448275873" height="20.86206896551724" width="5" fill="#000"></rect><text x="11" y="95.86206896551735" dy="0.35em" text-anchor="start">TYROBP</text></g><g><rect x="0" y="457.1551724137931" height="0.9482758620689538" width="5" fill="#000"></rect><text x="11" y="457.62931034482756" dy="0.35em" text-anchor="start">UTP11</text></g><g><rect x="0" y="434.54741379310343" height="1.4224137931034875" width="5" fill="#000"></rect><text x="11" y="435.2586206896552" dy="0.35em" text-anchor="start">UTP15</text></g></g></g></svg>